<svg width="77.000000" height="34.000000" viewBox="0 0 77 34" fill="none" xmlns="http://www.w3.org/2000/svg" xmlns:xlink="http://www.w3.org/1999/xlink">
	<desc>
			Created with Pixso.
	</desc>
	<defs/>
	<path id="WD" d="M13.9 34L9.54 34L-0.01 -0.92L4.29 -0.92L11.58 27.51L11.92 27.51L19.36 -0.92L24.13 -0.92L31.56 27.51L31.9 27.51L39.2 -0.92L43.49 -0.92L33.95 34L29.58 34L21.88 6.17L21.61 6.17L13.9 34ZM76.16 16.48C76.16 27.39 70.16 34 59.52 34L48.75 34L48.75 -0.92L60 -0.92C70.16 -0.92 76.16 5.64 76.16 16.48ZM52.97 2.83L52.97 30.25L59.25 30.25C67.91 30.25 72.07 25 72.07 16.48C72.07 8.01 67.91 2.83 59.72 2.83L52.97 2.83Z" fill="#34547A" fill-opacity="1.000000" fill-rule="evenodd"/>
</svg>
