<svg width="141.000000" height="51.000000" viewBox="0 0 141 51" fill="none" xmlns="http://www.w3.org/2000/svg" xmlns:xlink="http://www.w3.org/1999/xlink">
	<desc>
			Created with Pixso.
	</desc>
	<defs>
		<clipPath id="clip1_80">
			<rect id="project" width="50.000000" height="50.000000" fill="white" fill-opacity="0"/>
		</clipPath>
	</defs>
	<path id="40+" d="M91.57 20.56Q92.78 18.93 92.78 15.71L92.78 13.13Q92.75 10 91.54 8.43Q91.26 8.05 90.9 7.77Q89.75 6.86 87.89 6.86Q86.04 6.86 84.91 7.76Q84.52 8.06 84.21 8.47Q83.01 10.08 83.01 13.3L83.01 15.88Q83.04 19.01 84.26 20.61Q84.6 21.04 85.02 21.35Q86.15 22.2 87.91 22.2Q89.7 22.2 90.82 21.34Q91.25 21.01 91.57 20.56ZM81.4 16.67L79.54 16.67L79.54 7.07L76.97 7.07L70.53 17.16L70.6 18.67L77.05 18.67L77.05 22L79.54 22L79.54 18.67L81.4 18.67L81.4 16.67ZM89.71 9.84Q90.29 10.82 90.29 12.92L90.29 16.29Q90.26 18.31 89.68 19.26Q89.44 19.66 89.09 19.89Q88.61 20.21 87.91 20.21Q87.21 20.21 86.72 19.89Q86.33 19.64 86.07 19.19Q85.49 18.16 85.49 16.07L85.49 12.68Q85.52 10.72 86.09 9.79Q86.31 9.43 86.63 9.21Q87.14 8.86 87.89 8.86Q88.64 8.86 89.14 9.21Q89.48 9.44 89.71 9.84ZM104.8 13.78L100.9 13.78L100.9 9.63L98.48 9.63L98.48 13.78L94.56 13.78L94.56 16.06L98.48 16.06L98.48 20.5L100.9 20.5L100.9 16.06L104.8 16.06L104.8 13.78ZM77.05 16.67L73.14 16.67L76.87 10.77L77.05 10.44L77.05 16.67Z" fill="#FFFFFF" fill-opacity="1.000000" fill-rule="evenodd"/>
	<path id="проектов" d="M86.58 45.97Q87.46 44.79 87.46 42.86L87.46 42.73Q87.46 40.68 86.58 39.53Q86.19 39.03 85.68 38.75Q85.02 38.39 84.17 38.39Q83.15 38.39 82.42 38.84Q82.03 39.09 81.71 39.48L81.64 38.54L80.32 38.54L80.32 50.25L81.77 50.25L81.77 46.17Q82.01 46.44 82.29 46.63Q83.07 47.15 84.19 47.15Q84.99 47.15 85.61 46.82Q86.16 46.53 86.58 45.97ZM89.41 40.46Q88.92 41.45 88.92 42.69L88.92 42.79Q88.92 44.52 89.74 45.65Q89.85 45.81 89.98 45.96Q90.4 46.43 90.93 46.71Q91.73 47.15 92.77 47.15Q93.69 47.15 94.45 46.79Q94.62 46.71 94.79 46.6Q95.09 46.42 95.34 46.18Q95.83 45.72 96.14 45.08Q96.61 44.1 96.61 42.86L96.61 42.76Q96.61 41 95.77 39.85Q95.66 39.71 95.55 39.58Q95.13 39.12 94.62 38.83Q93.81 38.39 92.75 38.39Q91.88 38.39 91.15 38.72Q90.95 38.81 90.76 38.92Q90.54 39.06 90.35 39.23Q89.77 39.72 89.41 40.46ZM99.96 46.67Q100.81 47.15 101.93 47.15Q103.2 47.15 104.09 46.57Q104.69 46.18 105.12 45.52L104.24 44.83Q103.89 45.28 103.43 45.58Q103.37 45.62 103.31 45.66Q102.78 45.97 102.01 45.97Q101.41 45.97 100.93 45.73Q100.54 45.54 100.23 45.2Q100.13 45.09 100.05 44.97Q99.53 44.25 99.5 43.18L105.23 43.18L105.23 42.58Q105.23 40.56 104.32 39.47Q104.05 39.15 103.71 38.92Q102.91 38.39 101.75 38.39Q101.31 38.39 100.9 38.49Q100.37 38.63 99.88 38.94Q99.65 39.1 99.44 39.28Q98.89 39.77 98.54 40.49Q98.06 41.48 98.06 42.74L98.06 43Q98.06 44.57 98.79 45.61Q98.95 45.83 99.14 46.02Q99.51 46.41 99.96 46.67ZM123.01 40.46Q122.52 41.45 122.52 42.69L122.52 42.79Q122.52 44.52 123.34 45.65Q123.45 45.81 123.59 45.96Q124.01 46.43 124.53 46.71Q125.33 47.15 126.37 47.15Q127.3 47.15 128.05 46.79Q128.22 46.71 128.39 46.6Q128.69 46.42 128.94 46.18Q129.43 45.72 129.74 45.08Q130.21 44.1 130.21 42.86L130.21 42.76Q130.21 41 129.37 39.85Q129.27 39.71 129.15 39.58Q128.73 39.12 128.22 38.83Q127.41 38.39 126.35 38.39Q125.48 38.39 124.76 38.72Q124.56 38.81 124.37 38.92Q124.15 39.06 123.95 39.23Q123.37 39.72 123.01 40.46ZM76.56 47L78 47L78 38.54L71.21 38.54L71.21 47L72.67 47L72.67 39.74L76.56 39.74L76.56 47ZM108.48 43.39L109.53 43.39L112.46 47L114.3 47L110.68 42.6L114.02 38.54L112.27 38.54L109.43 42.12L108.48 42.12L108.48 38.54L107.03 38.54L107.03 47L108.48 47L108.48 43.39ZM118.99 39.71L121.82 39.71L121.82 38.54L114.76 38.54L114.76 39.71L117.54 39.71L117.54 47L118.99 47L118.99 39.71ZM132.16 38.54L132.16 47L135.98 47Q137.54 47 138.4 46.38Q138.73 46.14 138.93 45.83Q139.25 45.32 139.25 44.6Q139.25 44.18 139.1 43.83Q138.99 43.57 138.79 43.35Q138.7 43.25 138.6 43.16Q138.18 42.79 137.56 42.64Q138.25 42.39 138.6 41.92Q138.78 41.68 138.87 41.41Q138.95 41.15 138.95 40.86Q138.95 40.22 138.66 39.75Q138.44 39.39 138.05 39.13Q137.14 38.54 135.46 38.54L132.16 38.54ZM91.02 45.12Q90.37 44.27 90.37 42.86Q90.37 41.28 91.03 40.42Q91.36 39.99 91.8 39.78Q92.22 39.57 92.75 39.57Q93.31 39.57 93.75 39.8Q94.18 40.01 94.51 40.44Q95.17 41.3 95.17 42.69Q95.17 44.25 94.52 45.11Q94.21 45.52 93.8 45.73Q93.35 45.97 92.77 45.97Q92.19 45.97 91.74 45.74Q91.33 45.52 91.02 45.12ZM100.94 39.74Q101.31 39.57 101.75 39.57Q102.36 39.57 102.8 39.84Q103.02 39.98 103.19 40.18Q103.72 40.78 103.78 41.89L103.78 42L99.55 42Q99.69 40.85 100.28 40.21Q100.58 39.9 100.94 39.74ZM124.62 45.12Q123.97 44.27 123.97 42.86Q123.97 41.28 124.63 40.42Q124.96 39.99 125.4 39.78Q125.83 39.57 126.35 39.57Q126.91 39.57 127.35 39.8Q127.78 40.01 128.11 40.44Q128.77 41.3 128.77 42.69Q128.77 44.25 128.12 45.11Q127.81 45.52 127.4 45.73Q126.95 45.97 126.37 45.97Q125.8 45.97 125.34 45.74Q124.93 45.52 124.62 45.12ZM85.41 40.44Q86.02 41.27 86.02 42.7Q86.02 44.32 85.41 45.15Q85.11 45.55 84.71 45.75Q84.29 45.97 83.75 45.97Q83.07 45.97 82.57 45.67Q82.09 45.38 81.77 44.82L81.77 40.78Q82.11 40.17 82.62 39.88Q83.1 39.61 83.74 39.61Q84.31 39.61 84.75 39.85Q85.13 40.06 85.41 40.44ZM135.47 42.13L133.6 42.13L133.6 39.71L135.58 39.71Q136.98 39.74 137.36 40.38Q137.5 40.62 137.5 40.94Q137.5 41.24 137.37 41.47Q136.99 42.13 135.47 42.13ZM133.6 45.83L133.6 43.28L135.94 43.28Q137.21 43.28 137.61 43.88Q137.8 44.15 137.8 44.55Q137.8 44.92 137.64 45.18Q137.53 45.36 137.35 45.5Q136.9 45.83 136 45.83L133.6 45.83Z" fill="#FFFFFF" fill-opacity="1.000000" fill-rule="evenodd"/>
	<rect id="project" width="50.000000" height="50.000000" fill="#FFFFFF" fill-opacity="0"/>
	<g clip-path="url(#clip1_80)">
		<path id="Vector" d="M49.16 0L11.66 0C11.2 0 10.83 0.37 10.83 0.83L10.83 13.33L12.5 13.33L12.5 1.66L48.33 1.66L48.33 47.49C48.34 47.93 48 48.3 47.56 48.33C47.49 48.33 47.42 48.32 47.35 48.32C47.2 48.32 47.05 48.31 46.91 48.3C46.89 48.3 46.88 48.3 46.87 48.29C44.15 48 42 45.85 41.7 43.13C41.7 43.11 41.69 43.1 41.69 43.09C41.67 42.89 41.66 42.69 41.66 42.49L41.66 40.83C41.66 40.37 41.29 39.99 40.83 39.99L12.5 39.99L12.5 25L10.83 25L10.83 39.99L4.16 39.99C3.7 39.99 3.33 40.37 3.33 40.83L3.33 42.49C3.33 46.64 6.69 49.99 10.83 49.99L47.58 49.99C48.93 49.96 50.01 48.85 49.99 47.49L49.99 0.83C49.99 0.37 49.62 0 49.16 0ZM10.83 48.33C7.61 48.32 5 45.72 5 42.49L5 41.66L40 41.66L40 42.49C40 42.77 40.01 43.04 40.04 43.32C40.05 43.39 40.06 43.46 40.07 43.53C40.1 43.73 40.14 43.93 40.18 44.13C40.19 44.2 40.21 44.27 40.23 44.34C40.28 44.54 40.34 44.74 40.41 44.93C40.43 44.99 40.45 45.04 40.47 45.1C40.54 45.3 40.63 45.51 40.72 45.71C40.74 45.75 40.76 45.79 40.78 45.83C40.88 46.04 41 46.24 41.12 46.44C41.14 46.47 41.16 46.5 41.17 46.53C41.31 46.74 41.46 46.94 41.61 47.14L41.64 47.18C41.82 47.41 42.02 47.62 42.22 47.83C42.4 48.01 42.59 48.18 42.78 48.33L10.83 48.33Z" fill="#FFFFFF" fill-opacity="1.000000" fill-rule="nonzero"/>
		<path id="Vector" d="M27.49 23.33C27.72 23.33 27.93 23.24 28.08 23.08L31.42 19.75C31.74 19.43 31.74 18.9 31.42 18.57L28.08 15.24C27.93 15.08 27.72 15 27.49 15L4.16 15C1.86 15 0 16.86 0 19.16C0 21.46 1.86 23.33 4.16 23.33L27.49 23.33ZM27.28 16.79L29.65 19.16L27.28 21.53L26.69 19.16L27.28 16.79ZM6.66 16.66L25.59 16.66L25.18 18.33L8.33 18.33L8.33 20L25.18 20L25.59 21.66L6.66 21.66L6.66 16.66ZM1.66 19.16C1.66 17.78 2.78 16.66 4.16 16.66L4.99 16.66L4.99 21.66L4.16 21.66C2.78 21.66 1.66 20.54 1.66 19.16Z" fill="#FFFFFF" fill-opacity="1.000000" fill-rule="nonzero"/>
		<path id="Vector" d="M19.16 35.83L44.16 35.83C44.62 35.83 44.99 35.46 44.99 34.99L44.99 10C44.99 9.53 44.62 9.16 44.16 9.16C43.94 9.16 43.73 9.25 43.57 9.41L18.57 34.41C18.25 34.73 18.25 35.26 18.57 35.58C18.73 35.74 18.94 35.83 19.16 35.83ZM43.33 12.01L43.33 14.16L41.66 14.16L41.66 15.83L43.33 15.83L43.33 17.5L41.66 17.5L41.66 19.16L43.33 19.16L43.33 20.83L41.66 20.83L41.66 22.5L43.33 22.5L43.33 24.16L41.66 24.16L41.66 25.83L43.33 25.83L43.33 27.5L41.66 27.5L41.66 29.16L43.33 29.16L43.33 30.83L41.66 30.83L41.66 32.49L43.33 32.49L43.33 34.16L41.66 34.16L41.66 32.49L40 32.49L40 34.16L38.33 34.16L38.33 32.49L36.66 32.49L36.66 34.16L35 34.16L35 32.49L33.33 32.49L33.33 34.16L31.66 34.16L31.66 32.49L30 32.49L30 34.16L28.33 34.16L28.33 32.49L26.66 32.49L26.66 34.16L25 34.16L25 32.49L23.33 32.49L23.33 34.16L21.17 34.16L43.33 12.01Z" fill="#FFFFFF" fill-opacity="1.000000" fill-rule="nonzero"/>
		<path id="Vector" d="M31.23 30.83L39.16 30.83C39.62 30.83 40 30.46 40 29.99L40 22.07C39.99 21.61 39.62 21.23 39.16 21.23C38.94 21.23 38.73 21.32 38.57 21.48L30.64 29.41C30.32 29.73 30.32 30.26 30.64 30.58C30.8 30.74 31.01 30.83 31.23 30.83ZM38.33 24.08L38.33 29.16L33.25 29.16L38.33 24.08Z" fill="#FFFFFF" fill-opacity="1.000000" fill-rule="nonzero"/>
		<path id="Vector" d="M21.66 5L38.33 5L38.33 6.66L21.66 6.66L21.66 5Z" fill="#FFFFFF" fill-opacity="1.000000" fill-rule="evenodd"/>
		<path id="Vector" d="M19.16 8.33L40.83 8.33L40.83 9.99L19.16 9.99L19.16 8.33Z" fill="#FFFFFF" fill-opacity="1.000000" fill-rule="evenodd"/>
		<path id="Vector" d="M14.16 25.83L19.16 25.83L19.16 27.49L14.16 27.49L14.16 25.83Z" fill="#FFFFFF" fill-opacity="1.000000" fill-rule="evenodd"/>
		<path id="Vector" d="M14.16 29.16L17.5 29.16L17.5 30.83L14.16 30.83L14.16 29.16Z" fill="#FFFFFF" fill-opacity="1.000000" fill-rule="evenodd"/>
	</g>
</svg>
