<svg width="100.000000" height="100.000000" viewBox="0 0 100 100" fill="none" xmlns="http://www.w3.org/2000/svg" xmlns:xlink="http://www.w3.org/1999/xlink">
	<desc>
			Created with Pixso.
	</desc>
	<defs>
		<clipPath id="clip1_138">
			<rect id="view" width="100.000000" height="100.000000" fill="white" fill-opacity="0"/>
		</clipPath>
	</defs>
	<rect id="view" width="100.000000" height="100.000000" fill="#FFFFFF" fill-opacity="0"/>
	<g clip-path="url(#clip1_138)">
		<path id="Vector" d="M86.25 36.42C66.17 16.33 33.49 16.33 13.41 36.42L0 49.83L13.74 63.57C23.78 73.62 36.97 78.64 50.16 78.64C63.35 78.64 76.54 73.62 86.58 63.57L100 50.16L86.25 36.42ZM84.19 61.19C65.43 79.95 34.9 79.95 16.13 61.19L4.77 49.83L15.8 38.8C34.56 20.04 65.09 20.04 83.86 38.8L95.22 50.16L84.19 61.19Z" fill="#FFFFFF" fill-opacity="1.000000" fill-rule="nonzero"/>
		<path id="Vector" d="M48.26 36.43C41.74 36.43 36.43 41.73 36.43 48.26C36.43 49.19 37.19 49.94 38.12 49.94C39.06 49.94 39.81 49.19 39.81 48.26C39.81 43.6 43.6 39.81 48.26 39.81C49.19 39.81 49.95 39.05 49.95 38.12C49.95 37.19 49.19 36.43 48.26 36.43Z" fill="#FFFFFF" fill-opacity="1.000000" fill-rule="nonzero"/>
		<path id="Vector" d="M49.95 27.99C37.84 27.99 27.99 37.84 27.99 49.94C27.99 62.05 37.84 71.9 49.95 71.9C62.06 71.9 71.91 62.05 71.91 49.94C71.91 37.84 62.06 27.99 49.95 27.99ZM49.95 68.53C39.7 68.53 31.37 60.19 31.37 49.94C31.37 39.7 39.7 31.36 49.95 31.36C60.19 31.36 68.53 39.7 68.53 49.94C68.53 60.19 60.19 68.53 49.95 68.53Z" fill="#FFFFFF" fill-opacity="1.000000" fill-rule="nonzero"/>
	</g>
</svg>
