<svg width="44.000000" height="23.000000" viewBox="0 0 44 23" fill="none" xmlns="http://www.w3.org/2000/svg" xmlns:xlink="http://www.w3.org/1999/xlink">
	<desc>
			Created with Pixso.
	</desc>
	<defs/>
	<path id="Vector" d="M43.51 20.2C43.46 20.09 43.41 20 43.36 19.93C42.61 18.68 41.16 17.15 39.01 15.33L38.97 15.29L38.95 15.27L38.92 15.25L38.9 15.25C37.93 14.4 37.31 13.83 37.06 13.54C36.58 12.99 36.48 12.42 36.74 11.85C36.92 11.42 37.6 10.51 38.79 9.13C39.41 8.39 39.9 7.8 40.27 7.36C42.89 4.16 44.03 2.12 43.68 1.23L43.55 1.02C43.46 0.9 43.22 0.79 42.84 0.68C42.46 0.58 41.98 0.56 41.38 0.63L34.82 0.67C34.72 0.64 34.57 0.64 34.37 0.68C34.17 0.72 34.07 0.74 34.07 0.74L33.96 0.8L33.87 0.86C33.79 0.9 33.71 0.97 33.62 1.08C33.53 1.18 33.45 1.3 33.39 1.44C32.67 3.12 31.86 4.68 30.95 6.13C30.39 6.99 29.87 7.73 29.4 8.37C28.93 9 28.54 9.46 28.22 9.76C27.9 10.06 27.61 10.3 27.35 10.48C27.09 10.66 26.9 10.74 26.76 10.71C26.62 10.68 26.49 10.65 26.37 10.63C26.16 10.5 25.99 10.33 25.86 10.12C25.73 9.9 25.64 9.63 25.6 9.3C25.55 8.98 25.53 8.7 25.52 8.46C25.51 8.22 25.51 7.89 25.53 7.46C25.55 7.03 25.55 6.74 25.55 6.58C25.55 6.06 25.56 5.48 25.59 4.87C25.61 4.25 25.63 3.76 25.64 3.4C25.66 3.04 25.67 2.66 25.67 2.25C25.67 1.85 25.64 1.53 25.59 1.31C25.53 1.08 25.45 0.85 25.35 0.64C25.24 0.42 25.09 0.26 24.88 0.14C24.68 0.02 24.42 -0.07 24.12 -0.14C23.31 -0.31 22.29 -0.4 21.04 -0.41C18.22 -0.44 16.4 -0.27 15.6 0.09C15.28 0.24 14.99 0.45 14.73 0.71C14.46 1.02 14.42 1.18 14.62 1.21C15.53 1.34 16.18 1.64 16.56 2.11L16.69 2.36C16.8 2.54 16.9 2.86 17.01 3.32C17.12 3.77 17.19 4.28 17.22 4.84C17.29 5.85 17.29 6.72 17.22 7.44C17.14 8.16 17.07 8.72 17 9.13C16.93 9.53 16.83 9.85 16.69 10.1C16.56 10.35 16.46 10.51 16.42 10.56C16.37 10.62 16.33 10.65 16.3 10.67C16.11 10.74 15.9 10.77 15.69 10.77C15.48 10.77 15.22 10.67 14.92 10.48C14.61 10.28 14.3 10.02 13.97 9.68C13.64 9.34 13.28 8.86 12.87 8.25C12.46 7.64 12.03 6.92 11.59 6.08L11.23 5.48C11 5.09 10.69 4.53 10.29 3.78C9.9 3.04 9.55 2.32 9.24 1.63C9.12 1.34 8.94 1.11 8.7 0.96L8.58 0.9C8.51 0.84 8.39 0.78 8.22 0.72C8.05 0.66 7.88 0.61 7.69 0.59L1.45 0.63C0.82 0.63 0.38 0.76 0.15 1.02L0.06 1.15C0.02 1.22 0 1.33 0 1.48C0 1.63 0.04 1.82 0.13 2.04C1.04 4 2.03 5.89 3.1 7.71C4.17 9.53 5.11 10.99 5.89 12.1C6.68 13.21 7.49 14.26 8.31 15.25C9.13 16.23 9.67 16.87 9.94 17.14C10.2 17.42 10.41 17.63 10.56 17.77L11.13 18.27C11.5 18.6 12.03 19 12.74 19.47C13.45 19.93 14.23 20.39 15.09 20.84C15.94 21.29 16.94 21.66 18.08 21.94C19.22 22.23 20.33 22.34 21.41 22.29L24.03 22.29C24.56 22.25 24.96 22.09 25.23 21.83L25.32 21.72C25.39 21.64 25.44 21.51 25.5 21.34C25.55 21.17 25.58 20.98 25.58 20.77C25.56 20.17 25.61 19.63 25.72 19.15C25.84 18.67 25.97 18.31 26.11 18.07C26.26 17.83 26.42 17.62 26.6 17.46C26.78 17.29 26.91 17.19 26.99 17.15C27.06 17.12 27.12 17.1 27.17 17.08C27.53 16.97 27.96 17.08 28.46 17.4C28.95 17.73 29.41 18.13 29.85 18.61C30.28 19.09 30.8 19.63 31.41 20.23C32.01 20.82 32.55 21.27 33 21.56L33.46 21.81C33.76 21.98 34.16 22.13 34.64 22.27C35.13 22.41 35.55 22.44 35.92 22.37L41.75 22.29C42.33 22.29 42.77 22.2 43.09 22.03C43.41 21.85 43.6 21.66 43.66 21.46C43.72 21.25 43.73 21.01 43.67 20.75C43.62 20.48 43.57 20.3 43.51 20.2Z" fill="#FFFFFF" fill-opacity="1.000000" fill-rule="nonzero"/>
</svg>
